<?xml version="1.0" encoding="UTF-8" standalone="no"?>
<svg
   xmlns:dc="http://purl.org/dc/elements/1.1/"
   xmlns:cc="http://creativecommons.org/ns#"
   xmlns:rdf="http://www.w3.org/1999/02/22-rdf-syntax-ns#"
   xmlns:svg="http://www.w3.org/2000/svg"
   xmlns="http://www.w3.org/2000/svg"
   xmlns:sodipodi="http://sodipodi.sourceforge.net/DTD/sodipodi-0.dtd"
   xmlns:inkscape="http://www.inkscape.org/namespaces/inkscape"
   width="24"
   height="24"
   viewBox="0 0 24 24"
   fill="none"
   stroke="currentColor"
   stroke-width="2"
   stroke-linecap="round"
   stroke-linejoin="round"
   class="feather feather-user-check"
   version="1.1"
   id="svg8"
   sodipodi:docname="approved.svg"
   inkscape:version="0.92.1 r15371">
  <metadata
     id="metadata14">
    <rdf:RDF>
      <cc:Work
         rdf:about="">
        <dc:format>image/svg+xml</dc:format>
        <dc:type
           rdf:resource="http://purl.org/dc/dcmitype/StillImage" />
      </cc:Work>
    </rdf:RDF>
  </metadata>
  <defs
     id="defs12" />
  <sodipodi:namedview
     pagecolor="#ffffff"
     bordercolor="#666666"
     borderopacity="1"
     objecttolerance="10"
     gridtolerance="10"
     guidetolerance="10"
     inkscape:pageopacity="0"
     inkscape:pageshadow="2"
     inkscape:window-width="1143"
     inkscape:window-height="864"
     id="namedview10"
     showgrid="false"
     inkscape:zoom="9.8333333"
     inkscape:cx="12.762712"
     inkscape:cy="12"
     inkscape:window-x="600"
     inkscape:window-y="362"
     inkscape:window-maximized="0"
     inkscape:current-layer="svg8" />
  <path
     d="M16 21v-2a4 4 0 0 0-4-4H5a4 4 0 0 0-4 4v2"
     id="path2" />
  <circle
     cx="8.5"
     cy="7"
     r="4"
     id="circle4" />
  <polyline
     points="17 11 19 13 23 9"
     id="polyline6" />
  <path
     style="fill:#008000;fill-opacity:1;stroke:none;stroke-width:0;stroke-miterlimit:4;stroke-dasharray:none;stroke-opacity:1"
     d="m 17.359409,12.686781 c -1.227114,-1.216486 -1.27682,-1.282229 -1.27682,-1.68876 0,-0.537354 0.37994,-0.909885 0.927981,-0.909885 0.313758,0 0.468963,0.104149 1.165897,0.782368 l 0.803959,0.782369 1.809419,-1.799318 c 1.663281,-1.6539946 1.838595,-1.7993177 2.17065,-1.7993177 0.698225,0 1.198038,0.7475634 0.893737,1.3367494 -0.172784,0.3345439 -4.054305,4.2398623 -4.38986,4.4167743 -0.588961,0.310514 -0.744535,0.227664 -2.104963,-1.12098 z"
     id="path3686"
     inkscape:connector-curvature="0" />
</svg>
