/* XPM */
static char * customer_xpm[] = {
"16 16 116 2",
"  	c None",
". 	c #A67D54",
"+ 	c #93602E",
"@ 	c #A98159",
"# 	c #A1754A",
"$ 	c #885019",
"% 	c #B3906D",
"& 	c #9F7145",
"* 	c #854B12",
"= 	c #A2774C",
"- 	c #AC855F",
"; 	c #A2754A",
"> 	c #8B531B",
", 	c #A3784D",
"' 	c #A77F56",
") 	c #925F2C",
"! 	c #99693A",
"~ 	c #A17140",
"{ 	c #CA9758",
"] 	c #D8A360",
"^ 	c #A2692C",
"/ 	c #905A24",
"( 	c #9A6A3B",
"_ 	c #976737",
": 	c #A2692B",
"< 	c #AD7331",
"[ 	c #874D14",
"} 	c #B17836",
"| 	c #B27939",
"1 	c #D39A51",
"2 	c #F3B96B",
"3 	c #F3BA6B",
"4 	c #E9AF62",
"5 	c #A46C2F",
"6 	c #8E5824",
"7 	c #9A6124",
"8 	c #E1A34F",
"9 	c #EBAD56",
"0 	c #A66A27",
"a 	c #D59645",
"b 	c #ECAC53",
"c 	c #EFAE55",
"d 	c #F0AF55",
"e 	c #AA6E29",
"f 	c #965A1A",
"g 	c #D49136",
"h 	c #ECA743",
"i 	c #ECA744",
"j 	c #C2812F",
"k 	c #CE8C35",
"l 	c #EBA541",
"m 	c #ECA642",
"n 	c #A86A21",
"o 	c #CB8426",
"p 	c #E99D31",
"q 	c #EA9E31",
"r 	c #E79C30",
"s 	c #B87522",
"t 	c #E2962A",
"u 	c #E89B2B",
"v 	c #DB9129",
"w 	c #874D13",
"x 	c #B46F18",
"y 	c #E3911A",
"z 	c #E5931A",
"A 	c #CE8219",
"B 	c #8B5013",
"C 	c #B78922",
"D 	c #DF901B",
"E 	c #E39018",
"F 	c #DA8F1C",
"G 	c #A1731D",
"H 	c #814F13",
"I 	c #874F14",
"J 	c #C17E26",
"K 	c #D18A29",
"L 	c #A16521",
"M 	c #824B15",
"N 	c #89D459",
"O 	c #B0DB7C",
"P 	c #B1B14F",
"Q 	c #B7A23A",
"R 	c #B0BA5A",
"S 	c #A5DB74",
"T 	c #72A133",
"U 	c #3A4314",
"V 	c #C99A5A",
"W 	c #F1B562",
"X 	c #98784C",
"Y 	c #574636",
"Z 	c #5B3C1E",
"` 	c #6FC037",
" .	c #88CC52",
"..	c #8ACD54",
"+.	c #89CC54",
"@.	c #89CB53",
"#.	c #82C94A",
"$.	c #539525",
"%.	c #98752D",
"&.	c #E09C3A",
"*.	c #523D1E",
"=.	c #131313",
"-.	c #0B0B0B",
";.	c #56AC29",
">.	c #57AC2A",
",.	c #57AB2A",
"'.	c #56AA29",
").	c #56A929",
"!.	c #55A829",
"~.	c #53A528",
"{.	c #53A428",
"].	c #499722",
"^.	c #5A5912",
"/.	c #986315",
"(.	c #201504",
"_.	c #000000",
"                                ",
"                    . +         ",
"        @ # $     # % & *       ",
"      = - ; > *   , ' ) * *     ",
"      ! ~ { ] ^ / ( _ : < [     ",
"    } | 1 2 3 4 5 6 7 8 9 0     ",
"    a b c d d d e f g h i j     ",
"    k l m m m m n o p q r s     ",
"      t u u u v w x y z A B     ",
"      C D E F G H I J K L M *   ",
"    N O P Q R S T U V W X Y Z   ",
"  `  ...+.@.+...#.$.%.&.*.=.-.  ",
"  ;.>.,.'.).!.~.{.].^./.(._._.  ",
"                                ",
"                                ",
"                                "};
