/* XPM */
static char * project_xpm[] = {
"16 16 164 2",
"  	c None",
". 	c #E1CA98",
"+ 	c #DDC99A",
"@ 	c #DBC79A",
"# 	c #E6CE98",
"$ 	c #EAD19A",
"% 	c #F2D9A0",
"& 	c #F5DA9E",
"* 	c #ECD49E",
"= 	c #F3DAA0",
"- 	c #EED396",
"; 	c #D6BE8A",
"> 	c #F0D498",
", 	c #F0D497",
"' 	c #EED397",
") 	c #EDD098",
"! 	c #D4B58C",
"~ 	c #C6B285",
"{ 	c #F6DB9F",
"] 	c #EACD90",
"^ 	c #D0B885",
"/ 	c #E2C992",
"( 	c #DAC9A4",
"_ 	c #D6CBB7",
": 	c #D3C6BB",
"< 	c #C09F93",
"[ 	c #B1A284",
"} 	c #E4C689",
"| 	c #C8C5BF",
"1 	c #CBCBCD",
"2 	c #C6C8CE",
"3 	c #CBC6BA",
"4 	c #C8BEA9",
"5 	c #B3B0AF",
"6 	c #C1B59A",
"7 	c #F2D79B",
"8 	c #DEC082",
"9 	c #B9BABF",
"0 	c #BFC1C5",
"a 	c #C5C8CE",
"b 	c #C8CAD0",
"c 	c #C7CAD2",
"d 	c #DDDFE4",
"e 	c #CCCBCB",
"f 	c #E8C267",
"g 	c #C69846",
"h 	c #919090",
"i 	c #BFB298",
"j 	c #D8BA7B",
"k 	c #BCBFC8",
"l 	c #D3D5DB",
"m 	c #D6D8DE",
"n 	c #EBECF0",
"o 	c #DCDEE4",
"p 	c #BABCC0",
"q 	c #C2AD7A",
"r 	c #E6A424",
"s 	c #EEE2CE",
"t 	c #B4B4B4",
"u 	c #AA9D80",
"v 	c #E9CD90",
"w 	c #D3B474",
"x 	c #C1C3CC",
"y 	c #E4E3E4",
"z 	c #DCD9DC",
"A 	c #E1E2E7",
"B 	c #D6D7DB",
"C 	c #A8A398",
"D 	c #EEB843",
"E 	c #E4BF7F",
"F 	c #F8F7F6",
"G 	c #C3C2C2",
"H 	c #C7BA9D",
"I 	c #E3C688",
"J 	c #CDAE6E",
"K 	c #BAB6BD",
"L 	c #EABCBD",
"M 	c #EADCDC",
"N 	c #DEDFE4",
"O 	c #BCBCBC",
"P 	c #C6A659",
"Q 	c #E2A639",
"R 	c #EAE5DC",
"S 	c #E3DCDC",
"T 	c #C0B8B8",
"U 	c #C5B89B",
"V 	c #F2D69A",
"W 	c #DDBF81",
"X 	c #C7A766",
"Y 	c #DAD8DD",
"Z 	c #EEEEF0",
"` 	c #E3E5EB",
" .	c #DCD0B1",
"..	c #E0A223",
"+.	c #DCC9A9",
"@.	c #EAEAEA",
"#.	c #E1DDDD",
"$.	c #C0BFBF",
"%.	c #BDB196",
"&.	c #EED296",
"*.	c #D7B97A",
"=.	c #C2A060",
"-.	c #D2D6E0",
";.	c #E9EBF0",
">.	c #E2E2E4",
",.	c #EDBD53",
"'.	c #C09244",
").	c #E4E4E2",
"!.	c #E7E7E7",
"~.	c #E6E6E6",
"{.	c #BEBEBE",
"].	c #928966",
"^.	c #E8CE94",
"/.	c #D1B272",
"(.	c #BC9A58",
"_.	c #C7AD79",
":.	c #CDD1DE",
"<.	c #E8EAF0",
"[.	c #F1DBA5",
"}.	c #E4A531",
"|.	c #A69D90",
"1.	c #9E9E9E",
"2.	c #D8D8D8",
"3.	c #DDDDDD",
"4.	c #A9A9A9",
"5.	c #695E44",
"6.	c #E4C88F",
"7.	c #CCAC6C",
"8.	c #B79553",
"9.	c #C7AC78",
"0.	c #EAE8E9",
"a.	c #EBB85E",
"b.	c #D2B892",
"c.	c #C7C7C8",
"d.	c #6C6862",
"e.	c #544F44",
"f.	c #656054",
"g.	c #4A4436",
"h.	c #56482C",
"i.	c #DEC289",
"j.	c #C6A564",
"k.	c #B4914F",
"l.	c #C6AC75",
"m.	c #CEC3C3",
"n.	c #BA9473",
"o.	c #9D9178",
"p.	c #AA966C",
"q.	c #AE9769",
"r.	c #B0996A",
"s.	c #BAA26F",
"t.	c #897650",
"u.	c #635433",
"v.	c #D8BC82",
"w.	c #C09E5D",
"x.	c #BA9A5D",
"y.	c #CFB47C",
"z.	c #CDB27A",
"A.	c #CBB17A",
"B.	c #CCB27B",
"C.	c #7C6B47",
"D.	c #433A23",
"E.	c #D2B67B",
"F.	c #C4A66A",
"G.	c #D7BE8D",
"                        . + @   ",
"            # $ % & & $ * = -   ",
"          ; > , ' ) ! ~ { { ]   ",
"          ^ / ( _ : < [ { & }   ",
"          | 1 2 3 4 5 6 { 7 8   ",
"  9 0 a b c d e f g h i { - j   ",
"  k l m n o p q r s t u { v w   ",
"  x y z A B C D E F G H & I J   ",
"  K L M N O P Q R S T U V W X   ",
"    Y Z `  ...+.@.#.$.%.&.*.=.  ",
"    -.;.>.,.'.).!.~.{.].^./.(._.",
"    :.<.[.}.|.1.2.3.4.5.6.7.8.9.",
"      0.a.b.c.d.e.f.g.h.i.j.k.l.",
"      m.n.o.p.q.r.s.t.u.v.w.x.  ",
"          y.y.z.A.B.C.D.E.F.    ",
"                        G.      "};
