/* XPM */
static char * task_xpm[] = {
"16 16 175 2",
"  	c None",
". 	c #FAC3B1",
"+ 	c #A9ACB3",
"@ 	c #C0C1C5",
"# 	c #C8C9CD",
"$ 	c #CED0D4",
"% 	c #CECFD4",
"& 	c #CACBCE",
"* 	c #D8C9C4",
"= 	c #F7CCBD",
"- 	c #C5ABA7",
"; 	c #A7AAB5",
"> 	c #C5C8D1",
", 	c #CED1D9",
"' 	c #C7C9D2",
") 	c #C8CBD3",
"! 	c #D0D2DA",
"~ 	c #C6C9D2",
"{ 	c #D1D3DA",
"] 	c #C8CAD2",
"^ 	c #D1C7B0",
"/ 	c #C6BFAD",
"( 	c #C4C4C4",
"_ 	c #DBC5BD",
": 	c #B6B3BA",
"< 	c #AFB2BF",
"[ 	c #DCDEE4",
"} 	c #EEEFF2",
"| 	c #E4E5E9",
"1 	c #E3E4EA",
"2 	c #F1F2F4",
"3 	c #E2E3E8",
"4 	c #E4E5EA",
"5 	c #E6E7E9",
"6 	c #BFBFC1",
"7 	c #D9C89E",
"8 	c #F3BD42",
"9 	c #D69E36",
"0 	c #D1CFCB",
"a 	c #F0F0F1",
"b 	c #C5C8D0",
"c 	c #B2B2BB",
"d 	c #D9C9CA",
"e 	c #E6D4D3",
"f 	c #D9D4D5",
"g 	c #D8DAE1",
"h 	c #D3D6DD",
"i 	c #B2B3BA",
"j 	c #9A9997",
"k 	c #C4AF7B",
"l 	c #E8AF2F",
"m 	c #E29C1D",
"n 	c #BEA47D",
"o 	c #969698",
"p 	c #D0D1D5",
"q 	c #C0C3CD",
"r 	c #B9B8C0",
"s 	c #E7C1C2",
"t 	c #F6BFC0",
"u 	c #E7E3E2",
"v 	c #EFF0F4",
"w 	c #C1C2C5",
"x 	c #8D8C89",
"y 	c #E6CF94",
"z 	c #F1B42E",
"A 	c #E19D26",
"B 	c #E9D3B0",
"C 	c #FAFAF9",
"D 	c #C5C5C5",
"E 	c #949495",
"F 	c #B8BBC3",
"G 	c #B9BBC7",
"H 	c #DCD9DD",
"I 	c #E9E6E7",
"J 	c #DDDCE0",
"K 	c #DEE0E7",
"L 	c #DCDDE1",
"M 	c #807E7C",
"N 	c #D9C184",
"O 	c #F1AF1F",
"P 	c #DE9C2B",
"Q 	c #EBDBC2",
"R 	c #FBFBFB",
"S 	c #F7F7F7",
"T 	c #ECECEC",
"U 	c #A7A7A7",
"V 	c #73757D",
"W 	c #BFC3D0",
"X 	c #E4E6ED",
"Y 	c #F2F3F6",
"Z 	c #E9EAEF",
"` 	c #E9EBF0",
" .	c #D5D2CC",
"..	c #BB9B4C",
"+.	c #EFA917",
"@.	c #DB9F3C",
"#.	c #E5DCCF",
"$.	c #EFEFEF",
"%.	c #E5E5E5",
"&.	c #F3EFEF",
"*.	c #D9D7D7",
"=.	c #535455",
"-.	c #C1C5D3",
";.	c #DDDFE8",
">.	c #E7E9EF",
",.	c #DFE2E9",
"'.	c #E2DFD9",
").	c #EDC972",
"!.	c #E9A317",
"~.	c #D49D42",
"{.	c #E7E1D8",
"].	c #EDEDED",
"^.	c #DBD8D8",
"/.	c #DACACA",
"(.	c #EADDDD",
"_.	c #E8E4E4",
":.	c #D7D7D7",
"<.	c #5A5A5A",
"[.	c #C6CBD9",
"}.	c #E5E7EF",
"|.	c #F0F1F5",
"1.	c #EEE9DE",
"2.	c #F3CB6A",
"3.	c #E69F14",
"4.	c #C39243",
"5.	c #E0DAD1",
"6.	c #E6E6E6",
"7.	c #E8E8E8",
"8.	c #E5E3E3",
"9.	c #E8E5E5",
"0.	c #E9E9E9",
"a.	c #D0D0D0",
"b.	c #545555",
"c.	c #C8CEDC",
"d.	c #E2E6EF",
"e.	c #ECE7DC",
"f.	c #F4C961",
"g.	c #E79D11",
"h.	c #C79D5A",
"i.	c #75716C",
"j.	c #DDDDDD",
"k.	c #E7E7E7",
"l.	c #B5B5B5",
"m.	c #585A5E",
"n.	c #CDD2E0",
"o.	c #EAEAEF",
"p.	c #F3D196",
"q.	c #E59913",
"r.	c #DDBC8C",
"s.	c #F3F2F2",
"t.	c #939495",
"u.	c #8C8C8C",
"v.	c #E1E1E1",
"w.	c #D4D4D4",
"x.	c #6E6E6E",
"y.	c #A2A6AF",
"z.	c #CFBCB5",
"A.	c #CC9D7A",
"B.	c #AF9A80",
"C.	c #B3B6C0",
"D.	c #B0B3BF",
"E.	c #90949F",
"F.	c #3B3C3E",
"G.	c #797979",
"H.	c #BFBFBF",
"I.	c #CFCFCF",
"J.	c #ADADAD",
"K.	c #525252",
"L.	c #5E6167",
"M.	c #9EA2AF",
"N.	c #111111",
"O.	c #323232",
"P.	c #454545",
"Q.	c #414141",
"R.	c #252525",
"                                ",
"                            .   ",
"+ @ @ # $ $ $ $ $ % $ $ & * = - ",
"; > , ' ) ! ~ ) { > ] ^ / ( _ : ",
"< [ } | 1 2 3 4 5 6 7 8 9 0 a b ",
"c d e f g 4 h i j k l m n o p q ",
"r s t u 4 v w x y z A B C D E F ",
"G H I J K L M N O P Q R S T U V ",
"W X Y Z `  ...+.@.#.S $.%.&.*.=.",
"-.;.>.,.'.).!.~.{.].^./.(._.:.<.",
"[.}.|.1.2.3.4.5.6.7.8.9.0.%.a.b.",
"c.d.e.f.g.h.i.j.k.k.k.k.k.k.l.m.",
"n.o.p.q.r.s.t.u.6.k.v.%.k.w.x.y.",
"  z.A.B.C.D.E.F.G.H.I.I.J.K.L.M.",
"                N.O.P.Q.R.      ",
"                                "};
