/* XPM */
static char * work5_xpm[] = {
"16 16 87 1",
" 	c None",
".	c #375C8E",
"+	c #396BAE",
"@	c #336CB7",
"#	c #386AAE",
"$	c #1E59A8",
"%	c #5092EC",
"&	c #72AEFD",
"*	c #81B8FF",
"=	c #71AEFD",
"-	c #4E92EC",
";	c #1D58A8",
">	c #1859B0",
",	c #519AFB",
"'	c #7AB3FF",
")	c #93C1FF",
"!	c #C5DEFF",
"~	c #C2D9F9",
"{	c #8BB5ED",
"]	c #549BFB",
"^	c #1858AF",
"/	c #2C5C9D",
"(	c #3487F4",
"_	c #5FA3FF",
":	c #71ADFF",
"<	c #7FB4FC",
"[	c #AAC3E5",
"}	c #A4BBD8",
"|	c #709EDC",
"1	c #6FADFF",
"2	c #66A7FF",
"3	c #3887F3",
"4	c #145CBC",
"5	c #3F92FF",
"6	c #4896FF",
"7	c #519BFF",
"8	c #6BA9FE",
"9	c #ABCBF6",
"0	c #A8C6EF",
"a	c #5D99E9",
"b	c #4D99FF",
"c	c #4293FF",
"d	c #196AD6",
"e	c #4494FF",
"f	c #6DABFF",
"g	c #F2F8FF",
"h	c #EEEFF0",
"i	c #6192D4",
"j	c #1769D6",
"k	c #4A98FF",
"l	c #509BFF",
"m	c #4E99FF",
"n	c #75B0FF",
"o	c #F3F8FF",
"p	c #6896D3",
"q	c #4E9AFF",
"r	c #105ABC",
"s	c #4998FF",
"t	c #5CA2FF",
"u	c #5AA0FF",
"v	c #7EB5FF",
"w	c #6F9AD3",
"x	c #5AA1FF",
"y	c #2A5B9E",
"z	c #3085F5",
"A	c #64A7FF",
"B	c #87BAFF",
"C	c #F4F9FF",
"D	c #769ED2",
"E	c #66A8FF",
"F	c #0E54B2",
"G	c #4895FC",
"H	c #70ADFF",
"I	c #83B7FC",
"J	c #B0C7E5",
"K	c #ABBED8",
"L	c #74A0DA",
"M	c #70AEFF",
"N	c #1355AE",
"O	c #3E8AEF",
"P	c #67A9FE",
"Q	c #71ABF9",
"R	c #70AAF8",
"S	c #66A7FC",
"T	c #082F64",
"U	c #144D99",
"V	c #2361B4",
"                ",
"                ",
"     .+@@#.     ",
"    $%&**=-;    ",
"   >,')!~{']^   ",
"  /(_:<[}|123/  ",
"  4567890a6bc4  ",
"  deecfghiceed  ",
"  jklmnohpqlkj  ",
"  rstuvohwxtsr  ",
"  yzA2BChDEAzy  ",
"   FGHIJKLMGF   ",
"    NOPQRSON    ",
"     TUVVUT     ",
"                ",
"                "};
