/* XPM */
static char * work6_xpm[] = {
"16 16 56 1",
" 	c None",
".	c #20357D",
"+	c #21367E",
"@	c #283C83",
"#	c #293E84",
"$	c #243980",
"%	c #192E77",
"&	c #3F5395",
"*	c #596BA7",
"=	c #5D6EA9",
"-	c #5B6CA8",
";	c #142972",
">	c #475A9B",
",	c #6778B0",
"'	c #7382B6",
")	c #7987BA",
"!	c #697AB1",
"~	c #122770",
"{	c #1B3179",
"]	c #384C90",
"^	c #6B7BB2",
"/	c #7180B5",
"(	c #364B8F",
"_	c #6273AC",
":	c #6F7FB4",
"<	c #7F8DBD",
"[	c #FFFFFF",
"}	c #8794C2",
"|	c #2A3F85",
"1	c #8D9AC5",
"2	c #6676AF",
"3	c #6071AB",
"4	c #98A3CB",
"5	c #5E70AA",
"6	c #2D4187",
"7	c #8B98C4",
"8	c #5668A5",
"9	c #919EC8",
"0	c #5265A2",
"a	c #2E4388",
"b	c #23387F",
"c	c #6475AD",
"d	c #5163A1",
"e	c #152A73",
"f	c #7584B8",
"g	c #4A5D9D",
"h	c #162B74",
"i	c #5466A3",
"j	c #7B89BB",
"k	c #132871",
"l	c #10256C",
"m	c #35498E",
"n	c #040B20",
"o	c #0A1745",
"p	c #0D1F5B",
"q	c #040A1F",
"                ",
"                ",
"     .+@#$.     ",
"    %&*==-&%    ",
"   ;>,'))'!>~   ",
"  {]^!!//^!^({  ",
"  %_:<[,_[}:_%  ",
"  |'^1[23[45:6  ",
"  6'!7[=8[90_a  ",
"  b,c}[*d[9-5$  ",
"  e>!5f-*f_,gh  ",
"   ~i:')j':ik   ",
"    lm*,,-ml    ",
"     noppoq     ",
"                ",
"                "};
