/* XPM */
static char * work4_xpm[] = {
"16 16 31 1",
" 	c None",
".	c #084A78",
"+	c #063B5F",
"@	c #155784",
"#	c #063D63",
"$	c #05395C",
"%	c #053556",
"&	c #246490",
"*	c #063C61",
"=	c #074773",
"-	c #06426C",
";	c #165885",
">	c #063E65",
",	c #063F66",
"'	c #074671",
")	c #1A5B88",
"!	c #0C4E7C",
"~	c #06446D",
"{	c #06416A",
"]	c #074875",
"^	c #135683",
"/	c #0B4D7B",
"(	c #0A4C7A",
"_	c #105380",
":	c #0F517F",
"<	c #34719C",
"[	c #2F6E98",
"}	c #4781A8",
"|	c #598EB3",
"1	c #032135",
"2	c #06456F",
"                ",
"                ",
"                ",
"              . ",
"             +@ ",
"            #$  ",
"           #%&  ",
"          *$=   ",
"  -     ;#>+    ",
"  >,')!~{]>     ",
"   ]^/(!_:{     ",
"    @<<<[(      ",
"     )}|@       ",
"      12        ",
"                ",
"                "};
