/* XPM */
static char * work1_xpm[] = {
"16 16 45 1",
" 	c None",
".	c #59BB0A",
"+	c #50AB06",
"@	c #6FC02D",
"#	c #53AB0C",
"$	c #4DA507",
"%	c #4AA004",
"&	c #84C550",
"*	c #51AA09",
"=	c #4EA607",
"-	c #5FAF1F",
";	c #5BAC1A",
">	c #77BA40",
",	c #52AC09",
"'	c #53AE09",
")	c #4FA807",
"!	c #56AA12",
"~	c #53AE0A",
"{	c #60AE21",
"]	c #7EBB4D",
"^	c #6CB233",
"/	c #59AF14",
"(	c #53B307",
"_	c #59B80C",
":	c #52AE08",
"<	c #5EB31A",
"[	c #68C31E",
"}	c #5FBE12",
"|	c #5CBE0E",
"1	c #5EC00F",
"2	c #64C418",
"3	c #65BE1D",
"4	c #5FA724",
"5	c #74BC3A",
"6	c #8CD74F",
"7	c #8AD74D",
"8	c #89D74C",
"9	c #86D349",
"0	c #6BB034",
"a	c #7FBA50",
"b	c #9FDC6F",
"c	c #ABE67C",
"d	c #77B843",
"e	c #487227",
"f	c #6E9F46",
"                ",
"                ",
"                ",
"              . ",
"             +@ ",
"            #$  ",
"           #%&  ",
"          *=-   ",
"  ;     >,')    ",
"  !~{]^/(_:     ",
"   <[}|1234     ",
"    567890      ",
"     abcd       ",
"      ef        ",
"                ",
"                "};
