/* XPM */
static char * work0_xpm[] = {
"16 16 112 2",
"  	c None",
". 	c #6FC02E",
"+ 	c #7BB849",
"@ 	c #88B861",
"# 	c #89B863",
"$ 	c #7DB94C",
"% 	c #71B53A",
"& 	c #A1C385",
"* 	c #B2CE9B",
"= 	c #B2CF9A",
"- 	c #B1CE9A",
"; 	c #B2CE9C",
"> 	c #A0C285",
", 	c #6FB438",
"' 	c #68B12D",
") 	c #A3CA83",
"! 	c #B7DF94",
"~ 	c #AFDF87",
"{ 	c #C9E6B2",
"] 	c #C8E3B2",
"^ 	c #ADDA87",
"/ 	c #B7E094",
"( 	c #A2CA81",
"_ 	c #66B02B",
": 	c #6DBB2E",
"< 	c #90C762",
"[ 	c #B6E988",
"} 	c #B8EF86",
"| 	c #B2E784",
"1 	c #F3FAED",
"2 	c #F2F8ED",
"3 	c #B0E283",
"4 	c #B9F086",
"5 	c #B6EA87",
"6 	c #8FC760",
"7 	c #6CB92B",
"8 	c #ABE573",
"9 	c #AFEC77",
"0 	c #B1EA7E",
"a 	c #B2E586",
"b 	c #F5FBF0",
"c 	c #F4F9F0",
"d 	c #AEDB85",
"e 	c #ACDE7D",
"f 	c #A8DD76",
"g 	c #ABE374",
"h 	c #6CBA2B",
"i 	c #7EC83A",
"j 	c #B1EE6F",
"k 	c #CCF3A8",
"l 	c #F5FBEF",
"m 	c #FDFEFD",
"n 	c #F4F9EF",
"o 	c #F3F8EF",
"p 	c #C0DEA3",
"q 	c #ACE869",
"r 	c #7FCA3A",
"s 	c #7FCB33",
"t 	c #B2F166",
"u 	c #CCF3A6",
"v 	c #F4FBEE",
"w 	c #F3F9EE",
"x 	c #F3F8EE",
"y 	c #BCDE99",
"z 	c #A1E949",
"A 	c #80CD33",
"B 	c #76C22A",
"C 	c #ABF04E",
"D 	c #ABEF57",
"E 	c #ACEC5C",
"F 	c #AEE66D",
"G 	c #F4F9EE",
"H 	c #A9DC6C",
"I 	c #A4E056",
"J 	c #9FDE4A",
"K 	c #A4ED3F",
"L 	c #79C42B",
"M 	c #6EB033",
"N 	c #95E034",
"O 	c #B4F64B",
"P 	c #B2F548",
"Q 	c #AEEB5B",
"R 	c #F3FAEC",
"S 	c #F2F8EC",
"T 	c #ABE65B",
"U 	c #B3F648",
"V 	c #B4F74A",
"W 	c #98E237",
"X 	c #6FB135",
"Y 	c #65B11E",
"Z 	c #9DE73A",
"` 	c #BCF951",
" .	c #B5EF5A",
"..	c #CDEEA3",
"+.	c #CCEAA3",
"@.	c #B3EA5A",
"#.	c #BDFA51",
"$.	c #A0E83C",
"%.	c #67B220",
"&.	c #61AE1E",
"*.	c #80D625",
"=.	c #9DEB39",
"-.	c #A6EF41",
";.	c #A6EE42",
">.	c #9EEB3A",
",.	c #81D626",
"'.	c #62AE1F",
").	c #326609",
"!.	c #48930A",
"~.	c #54A70E",
"{.	c #55A70E",
"].	c #326509",
"                                ",
"                                ",
"          . + @ # $ .           ",
"        % & * = - ; > ,         ",
"      ' ) ! ~ { ] ^ / ( _       ",
"    : < [ } | 1 2 3 4 5 6 :     ",
"    7 8 9 0 a b c d e f g h     ",
"    i j k l l m m n o p q r     ",
"    s t u l v m m w x y z A     ",
"    B C D E F v G H I J K L     ",
"    M N O P Q R S T U V W X     ",
"      Y Z `  ...+.@.#.$.%.      ",
"        &.*.=.-.;.>.,.'.        ",
"          ).!.~.{.!.].          ",
"                                ",
"                                "};
