/* XPM */
static char * work3_xpm[] = {
"16 16 61 1",
" 	c None",
".	c #FECA6C",
"+	c #D9AE57",
"@	c #FADB70",
"#	c #F7DD73",
"$	c #F8CD65",
"%	c #F8EA76",
"&	c #F9EE79",
"*	c #D9B54E",
"=	c #ECBC58",
"-	c #F8D163",
";	c #F6D35C",
">	c #F6D456",
",	c #F5E062",
"'	c #F5ED70",
")	c #F5EE70",
"!	c #F5E364",
"~	c #F4D654",
"{	c #F4D452",
"]	c #F7D65B",
"^	c #E0BA48",
"/	c #E2BD45",
"(	c #F4E55D",
"_	c #F2EB63",
":	c #F3EA63",
"<	c #F3EA62",
"[	c #F4E85E",
"}	c #D8BC3C",
"|	c #736129",
"1	c #D6B73C",
"2	c #F0E250",
"3	c #F0E755",
"4	c #EFE654",
"5	c #F0E754",
"6	c #F0E450",
"7	c #D0B734",
"8	c #EDD239",
"9	c #EDE347",
"0	c #EDE447",
"a	c #EAD538",
"b	c #7B6921",
"c	c #ECD42E",
"d	c #EAE039",
"e	c #ECE038",
"f	c #EAE03A",
"g	c #EAD72F",
"h	c #EAD725",
"i	c #E9D929",
"j	c #CCB71D",
"k	c #C9B31A",
"l	c #E7D625",
"m	c #EBDB26",
"n	c #B19F2A",
"o	c #F0D435",
"p	c #D8C118",
"q	c #938217",
"r	c #B2A238",
"s	c #D8C418",
"t	c #BCA90F",
"u	c #A79526",
"v	c #7C7002",
"                ",
"                ",
"                ",
"       .+       ",
"       @#       ",
"      $%&*      ",
"  =-;>,')!~{]^  ",
"   /(_:<<:_[}|  ",
"    12344567    ",
"     89990ab    ",
"     cdeefg     ",
"     hijklmn    ",
"    opq  rst    ",
"    u      v    ",
"                ",
"                "};
