/* XPM */
static char * work2_xpm[] = {
"16 16 117 2",
"  	c None",
". 	c #F59D38",
"+ 	c #F3A252",
"@ 	c #F2A764",
"# 	c #F3A761",
"$ 	c #F4A047",
"% 	c #F7A43D",
"& 	c #F89E28",
"* 	c #F2A04E",
"= 	c #F4BD90",
"- 	c #F7D1B2",
"; 	c #FAE3D1",
"> 	c #F1D5BE",
", 	c #F3C59F",
"' 	c #F3B279",
") 	c #F39529",
"! 	c #F29B43",
"~ 	c #F7C38E",
"{ 	c #FBD092",
"] 	c #FDE3B7",
"^ 	c #FFFEFD",
"/ 	c #E6DDCE",
"( 	c #F4CE93",
"_ 	c #FACD94",
": 	c #F4B374",
"< 	c #F49423",
"[ 	c #F4982B",
"} 	c #F7BB72",
"| 	c #FED183",
"1 	c #FFD381",
"2 	c #FFE2AC",
"3 	c #FFFEFC",
"4 	c #E5DBC9",
"5 	c #F6CE83",
"6 	c #FFD382",
"7 	c #FCCD83",
"8 	c #F4A54C",
"9 	c #F8A338",
"0 	c #F6A239",
"a 	c #FDCB73",
"b 	c #FFCD73",
"c 	c #FFCC71",
"d 	c #FFDEA2",
"e 	c #E5DAC6",
"f 	c #F6C875",
"g 	c #FFCE73",
"h 	c #FFCE74",
"i 	c #FABF65",
"j 	c #F6A037",
"k 	c #F9AF45",
"l 	c #FFC866",
"m 	c #FFC764",
"n 	c #FFC662",
"o 	c #FFD895",
"p 	c #FFFEFB",
"q 	c #E3D5BC",
"r 	c #F6BC54",
"s 	c #FFBD47",
"t 	c #FFBE4C",
"u 	c #FEC25B",
"v 	c #F8A942",
"w 	c #FBAC37",
"x 	c #FFC257",
"y 	c #FFC157",
"z 	c #FFC054",
"A 	c #FECD7A",
"B 	c #FAF6EE",
"C 	c #DEC59B",
"D 	c #F5A821",
"E 	c #FFAD1D",
"F 	c #FFAD1F",
"G 	c #FEB436",
"H 	c #F9AA3D",
"I 	c #F99D19",
"J 	c #FFB537",
"K 	c #FFB63B",
"L 	c #FFB435",
"M 	c #FDB337",
"N 	c #EAB761",
"O 	c #E2A743",
"P 	c #FAA91F",
"Q 	c #FFAD20",
"R 	c #FDA91E",
"S 	c #F79F2B",
"T 	c #F6971E",
"U 	c #FDA71F",
"V 	c #FFAD25",
"W 	c #FFAC22",
"X 	c #FEB844",
"Y 	c #FFCF7F",
"Z 	c #F8C063",
"` 	c #FDAD28",
" .	c #FFAD24",
"..	c #FA9D16",
"+.	c #F79411",
"@.	c #FDA821",
"#.	c #FEAB24",
"$.	c #FDC569",
"%.	c #F8F0E4",
"&.	c #E2CBA7",
"*.	c #F7AA2E",
"=.	c #FFAC25",
"-.	c #FCA11A",
";.	c #F59623",
">.	c #FA9412",
",.	c #FEA118",
"'.	c #FBA928",
").	c #E8A43A",
"!.	c #E59F31",
"~.	c #FBA41D",
"{.	c #FD9C14",
"].	c #F99926",
"^.	c #C16D0D",
"/.	c #DA7F0C",
"(.	c #E4870C",
"_.	c #E1850C",
":.	c #D3790B",
"                                ",
"                                ",
"          . + @ # $ %           ",
"      & * = - ; > , ' )         ",
"      ! ~ { ] ^ / ( _ : <       ",
"    [ } | 1 2 3 4 5 6 7 8 9     ",
"    0 a b c d 3 e f g h i j     ",
"    k l m n o p q r s t u v     ",
"    w x y z A B C D E F G H     ",
"    I J K L M N O P Q Q R S     ",
"    T U V W X Y Z `  . ...      ",
"      +.@.#.$.%.&.*.=.-.;.      ",
"        >.,.'.).!.~.{.].        ",
"          ^./.(._.:.            ",
"                                ",
"                                "};
